PathFileType	4	(X/Y/Z)	C:/Users/opensim2020/Desktop/walking_exp_matlab/subject02_walking06_straight_04.trc	
DataRate	CameraRate	NumFrames	NumMarkers	Units	OrigDataRate	OrigDataStartFrame	OrigNumFrames	
100.00	100.00	7	41	mm	100.00	2763	216	
Frame#	Time	LFHD			RFHD			LBHD			RBHD			C7			T10			CLAV			STRN			RBAK			LSHO			LUPA			LELB			LFRM			LWRA			LWRB			LFIN			RSHO			RUPA			RELB			RFRM			RWRA			RWRB			RFIN			LASI			RASI			LPSI			RPSI			LTHI			LKNE			LTIB			LANK			LHEE			LTOE			RTHI			RKNE			RTIB			RANK			RHEE			RTOE			*39			*40			
		X1	Y1	Z1	X2	Y2	Z2	X3	Y3	Z3	X4	Y4	Z4	X5	Y5	Z5	X6	Y6	Z6	X7	Y7	Z7	X8	Y8	Z8	X9	Y9	Z9	X10	Y10	Z10	X11	Y11	Z11	X12	Y12	Z12	X13	Y13	Z13	X14	Y14	Z14	X15	Y15	Z15	X16	Y16	Z16	X17	Y17	Z17	X18	Y18	Z18	X19	Y19	Z19	X20	Y20	Z20	X21	Y21	Z21	X22	Y22	Z22	X23	Y23	Z23	X24	Y24	Z24	X25	Y25	Z25	X26	Y26	Z26	X27	Y27	Z27	X28	Y28	Z28	X29	Y29	Z29	X30	Y30	Z30	X31	Y31	Z31	X32	Y32	Z32	X33	Y33	Z33	X34	Y34	Z34	X35	Y35	Z35	X36	Y36	Z36	X37	Y37	Z37	X38	Y38	Z38	X39	Y39	Z39	X40	Y40	Z40	X41	Y41	Z41	

109	1.080	-959.68024	-327.76974	1721.77625	-1102.49939	-322.16418	1702.68591	-945.85706	-196.04326	1652.25293	-1088.59302	-176.20259	1631.96484	-1017.19379	-133.28719	1511.56750	-1028.97034	-76.06915	1235.95667	-1006.96228	-272.58945	1441.43713	-1013.38977	-320.49594	1268.69983	-1079.99573	-70.62313	1336.54626	-839.64777	-209.15150	1489.68555	-745.05750	-265.13763	1308.04700	-723.63928	-336.82190	1183.39172	-738.84857	-442.81366	1099.35840	-804.83301	-557.32434	1062.00049	-764.69708	-537.68188	1027.32520	-773.65088	-599.91632	1007.58490	-1204.25903	-206.83244	1473.96069	-1284.05090	-147.43895	1291.51221	-1304.59314	-142.96588	1144.73425	-1326.20435	-157.00320	1025.26282	-1309.70178	-190.49234	893.55042	-1340.90259	-143.45241	896.07904	-1343.08069	-171.57057	828.14465	-873.55701	-285.85739	971.85950	-1126.40723	-323.31030	961.24823	-984.04321	-90.01947	1018.93805	-1098.59216	-101.86189	1015.12799	-841.48267	-168.79576	666.73981	-877.97375	-104.86291	472.46915	-881.67303	-9.03374	302.38486	-922.45386	35.11400	82.77770	-974.12335	75.69261	60.51169	-912.08582	-116.50797	31.96310	-1215.07935	-310.76947	662.74799	-1174.10156	-386.88385	470.77151	-1190.41541	-418.20877	288.06747	-1165.26465	-477.60046	101.52152	-1110.48950	-467.69290	35.64487	-1172.34204	-638.53632	104.41361	-1046.13013	-225.56181	1790.68640			 
110	1.090	-961.94556	-338.04108	1720.32446	-1104.43481	-332.24500	1701.30542	-948.12573	-205.69774	1651.16260	-1089.79919	-186.64140	1630.72607	-1019.01959	-143.06897	1510.22693	-1030.93286	-86.30648	1234.47339	-1008.81036	-282.58057	1440.20874	-1014.97363	-330.80228	1267.53796	-1081.52649	-80.77873	1334.98315	-841.56726	-218.98129	1488.54163	-746.62561	-274.53622	1306.99365	-724.87897	-346.42090	1182.34839	-739.88647	-452.24768	1099.18799	-805.60254	-568.06293	1062.68762	-765.63092	-548.63849	1027.95361	-774.44263	-611.13007	1008.73755	-1206.17432	-216.88103	1472.40649	-1285.77002	-156.96313	1290.14136	-1306.65991	-151.78264	1143.58105	-1327.94751	-165.14116	1023.81793	-1311.82605	-197.83777	891.79291	-1342.81165	-150.62500	894.91827	-1345.04504	-178.29437	826.80316	-874.22247	-295.75674	970.41235	-1127.15808	-334.56006	960.06665	-986.16333	-100.50167	1017.32660	-1100.62097	-112.68774	1013.63464	-842.27185	-176.98264	666.06372	-878.50562	-111.77663	472.32465	-881.99524	-13.33402	303.76288	-922.24896	34.21093	84.72720	-973.77954	75.06185	63.12515	-911.94757	-116.60556	31.93227	-1216.09705	-322.47595	661.64581	-1174.66431	-398.18332	469.60269	-1190.79138	-429.67734	286.96002	-1165.54590	-488.99658	100.42015	-1110.69141	-478.70239	34.72446	-1172.24500	-649.85327	102.73566	-1047.84448	-235.42017	1789.12683			 
111	1.100	-964.11029	-348.07242	1719.05188	-1106.54431	-342.31989	1699.95789	-950.45288	-215.88582	1649.67590	-1091.94495	-196.64705	1629.42053	-1020.96716	-153.02432	1508.90039	-1032.91675	-96.76082	1232.98242	-1010.74780	-292.72421	1439.07507	-1016.64850	-341.08942	1266.43933	-1083.96741	-91.07018	1333.52209	-843.59991	-228.97504	1487.29822	-748.44275	-283.97522	1305.84338	-726.25543	-355.68668	1181.12756	-741.13727	-461.99088	1098.58850	-806.35742	-578.16370	1063.08728	-766.67322	-558.87842	1027.95496	-774.95648	-621.38977	1009.28473	-1208.16101	-226.95432	1470.93542	-1287.41199	-166.67461	1288.68665	-1308.05469	-161.23872	1142.20300	-1330.00354	-173.87935	1022.52863	-1313.79700	-205.69904	890.38855	-1344.77124	-158.34795	893.67255	-1347.13562	-185.55008	825.40967	-874.97198	-305.79855	969.09698	-1128.02979	-346.00394	959.04120	-988.43103	-111.16973	1015.69067	-1102.72229	-123.68317	1012.19330	-843.10382	-185.51094	665.37024	-879.02924	-119.00219	472.22443	-882.33484	-17.96101	305.27902	-922.06152	33.20712	86.81773	-973.38385	74.07893	65.65651	-911.82068	-116.70565	31.87193	-1217.20081	-334.97110	660.66498	-1175.43994	-409.88998	468.58380	-1191.23523	-440.25931	285.49533	-1165.41565	-497.96295	98.57998	-1110.03015	-487.50635	32.89787	-1172.44714	-658.65802	99.54930	-1050.16919	-245.55864	1787.98694			 
112	1.110	-966.11981	-358.31610	1717.91809	-1108.74719	-352.34415	1698.64709	-952.16547	-225.44710	1648.38940	-1094.10889	-206.77553	1628.11304	-1023.08063	-163.04642	1507.51306	-1035.04272	-107.24940	1231.43396	-1012.81183	-302.87906	1437.93494	-1018.35461	-351.52728	1265.35095	-1086.15088	-101.41451	1331.92017	-845.61102	-238.87335	1486.30188	-750.25671	-292.88858	1304.43750	-727.84094	-364.47318	1179.69177	-742.19189	-471.63889	1097.44531	-807.05481	-587.77167	1062.74561	-767.80811	-568.62964	1027.26147	-775.79248	-630.97736	1008.84564	-1210.29724	-237.07547	1469.54370	-1288.86609	-176.61403	1287.13940	-1310.11462	-170.61670	1140.95020	-1331.87512	-182.71797	1021.26807	-1315.99719	-213.95955	888.80127	-1346.79431	-166.44838	892.49091	-1349.32520	-193.22510	824.03931	-875.87640	-316.08310	967.88867	-1129.11035	-357.59863	958.14423	-990.76178	-122.04278	1014.07556	-1104.81152	-134.91869	1010.77332	-844.10760	-194.36414	664.78271	-879.57227	-126.54827	472.16571	-882.72906	-22.82639	306.91782	-921.78790	32.09336	89.23331	-973.20056	73.56384	69.02000	-911.68347	-116.77977	31.78184	-1218.40076	-348.11252	659.83691	-1176.32092	-421.76944	467.47809	-1191.74963	-449.87585	283.66498	-1165.10144	-504.85770	96.12256	-1109.61487	-493.68683	30.74497	-1173.06873	-665.26019	95.65200	-1052.21484	-255.55678	1786.44116			 
113	1.120	-968.35681	-367.94806	1716.88684	-1111.03381	-362.39191	1697.31409	-954.70465	-235.30302	1647.28552	-1096.53223	-216.68871	1626.83008	-1025.34143	-173.14929	1506.16272	-1037.22119	-117.92579	1229.81409	-1014.93146	-313.10583	1436.81836	-1020.21704	-362.16006	1264.36963	-1088.35657	-111.97242	1330.30627	-847.79486	-248.81917	1485.21423	-752.46704	-302.20712	1303.06042	-729.52704	-372.91019	1178.10388	-743.52148	-480.47311	1096.10352	-807.73083	-596.72632	1061.73083	-768.62701	-577.31854	1026.21130	-776.38580	-640.00873	1007.77948	-1212.40662	-247.18384	1468.30676	-1291.58081	-186.62898	1286.06775	-1311.65369	-180.51382	1139.66089	-1334.05701	-191.80402	1019.98346	-1318.16895	-222.15955	887.14758	-1348.78516	-175.05406	891.23212	-1351.58350	-201.31825	822.73566	-876.94080	-326.60815	966.93909	-1130.43774	-369.47247	957.44647	-993.27820	-133.12090	1012.44476	-1107.05811	-146.23576	1009.40002	-845.09436	-203.58958	664.17670	-880.15375	-134.45659	472.09714	-883.16406	-27.91475	308.74744	-921.47626	31.04979	91.83705	-972.94360	72.43919	72.31245	-911.53845	-116.85668	31.74872	-1219.74707	-361.87363	659.43585	-1177.39624	-433.39017	466.16550	-1192.29004	-458.45370	281.50952	-1164.84912	-509.93665	93.16736	-1109.04236	-498.23636	28.02044	-1173.65796	-670.09894	90.66877	-1055.03186	-265.80933	1785.45056			 
114	1.130	-970.71423	-377.67340	1715.47876	-1113.38135	-372.41202	1695.97803	-957.17712	-245.35425	1646.23022	-1099.28223	-226.61272	1625.50427	-1027.58862	-183.17999	1504.71924	-1039.55994	-128.72797	1228.14563	-1017.12152	-323.26425	1435.73889	-1022.12329	-372.89456	1263.44885	-1090.62610	-122.51862	1328.39954	-850.10925	-258.74072	1484.06982	-754.52075	-310.80334	1301.71887	-731.35327	-380.85168	1176.30505	-744.88940	-487.93747	1094.18079	-808.40326	-605.25000	1060.16528	-769.85907	-586.16626	1024.36621	-776.71875	-648.08551	1006.19806	-1214.67749	-257.47345	1466.86023	-1293.42224	-196.88338	1284.60095	-1313.86450	-190.35075	1138.45557	-1335.90076	-201.31857	1018.72644	-1320.68066	-231.12172	885.74512	-1351.14258	-183.79199	890.20490	-1353.99536	-209.91980	821.30426	-878.17645	-337.51199	966.02686	-1131.92200	-381.61456	956.69702	-995.84650	-144.59935	1010.73590	-1109.32605	-157.89282	1007.91980	-846.14136	-213.34119	663.55157	-880.79297	-142.72665	472.10324	-883.76349	-33.28754	310.69177	-921.26001	29.41885	94.68609	-972.58826	71.62385	75.99221	-911.39337	-116.96580	31.70313	-1221.17065	-375.94336	659.11188	-1178.72913	-444.62042	464.76245	-1192.82764	-465.95352	279.06943	-1164.72461	-513.51215	90.14892	-1109.21082	-500.05219	26.42208	-1174.28345	-673.37360	84.64964	-1057.39771	-275.58069	1784.09802			 
115	1.140	-973.19745	-387.56516	1714.24792	-1115.85913	-382.39105	1694.63965	-959.59253	-255.25854	1644.90283	-1101.51660	-236.62480	1624.05542	-1030.32019	-193.28110	1503.40466	-1041.97485	-139.64146	1226.35693	-1019.37146	-333.56366	1434.71277	-1024.13489	-383.72583	1262.56433	-1093.17651	-133.13588	1326.75903	-852.52032	-268.73840	1482.92773	-756.88739	-319.42111	1300.31885	-733.34961	-388.62170	1174.34985	-746.62793	-495.95853	1091.81836	-809.04547	-613.19147	1057.94702	-770.79431	-592.82477	1021.84033	-777.48724	-655.15442	1003.20044	-1216.76111	-267.64542	1465.60657	-1295.58960	-207.28961	1283.25745	-1315.62476	-200.60040	1137.11523	-1337.87695	-210.83470	1017.41858	-1323.19727	-240.72560	884.58228	-1353.45618	-193.03647	889.02521	-1356.56628	-218.79088	820.18634	-879.70386	-348.73248	965.22540	-1133.63989	-393.93954	956.44403	-998.52606	-156.30399	1009.04889	-1111.71899	-169.74879	1006.42847	-847.25323	-223.16240	663.00012	-881.41400	-151.40257	472.11148	-884.06335	-39.04041	312.84760	-920.89771	27.76307	97.83783	-972.47522	69.65354	80.12551	-911.26318	-117.05854	31.66386	-1222.53918	-390.16745	658.82642	-1180.43958	-455.30078	463.18649	-1193.23083	-472.50027	276.35861	-1164.20874	-516.36627	86.83329	-1108.56409	-501.23672	25.17260	-1175.01282	-675.63226	77.06335	-1059.94153	-285.47876	1782.81494			 
